<svg width="600" height="600" viewBox="0 0 600 600" fill="none" xmlns="http://www.w3.org/2000/svg">
<path d="M545 177H55C46.5 177 39 184.5 39 193V347C39 356.627 45.3726 363 55 363H545C554.627 363 561 356.627 561 347V193C561 183.373 554.627 177 545 177Z" fill="#7657FF"/>
<path d="M255.672 258.021C255.504 256.305 254.784 254.972 253.513 254.021C252.241 253.071 250.515 252.596 248.335 252.596C246.854 252.596 245.603 252.809 244.583 253.234C243.563 253.645 242.78 254.22 242.235 254.957C241.704 255.695 241.439 256.532 241.439 257.468C241.411 258.248 241.572 258.929 241.921 259.511C242.284 260.092 242.78 260.596 243.409 261.021C244.038 261.433 244.765 261.794 245.589 262.106C246.414 262.404 247.294 262.66 248.23 262.872L252.087 263.809C253.96 264.234 255.679 264.801 257.244 265.511C258.809 266.22 260.164 267.092 261.31 268.128C262.456 269.163 263.344 270.383 263.972 271.787C264.615 273.191 264.944 274.801 264.958 276.617C264.944 279.284 264.273 281.596 262.945 283.553C261.632 285.496 259.731 287.007 257.244 288.085C254.77 289.149 251.787 289.681 248.293 289.681C244.828 289.681 241.809 289.142 239.238 288.064C236.681 286.986 234.682 285.39 233.243 283.277C231.817 281.149 231.07 278.518 231 275.383H239.783C239.881 276.844 240.293 278.064 241.02 279.043C241.76 280.007 242.745 280.738 243.975 281.234C245.219 281.716 246.623 281.957 248.188 281.957C249.726 281.957 251.06 281.73 252.192 281.277C253.338 280.823 254.225 280.191 254.854 279.383C255.483 278.574 255.797 277.645 255.797 276.596C255.797 275.617 255.511 274.794 254.938 274.128C254.379 273.461 253.555 272.894 252.465 272.426C251.389 271.957 250.068 271.532 248.503 271.149L243.828 269.957C240.209 269.064 237.351 267.667 235.255 265.766C233.159 263.865 232.118 261.305 232.132 258.085C232.118 255.447 232.81 253.142 234.207 251.17C235.619 249.199 237.554 247.66 240.013 246.553C242.473 245.447 245.268 244.894 248.398 244.894C251.584 244.894 254.365 245.447 256.741 246.553C259.13 247.66 260.989 249.199 262.317 251.17C263.644 253.142 264.329 255.426 264.371 258.021H255.672Z" fill="white"/>
<path d="M286.749 289.702C283.437 289.702 280.586 289.021 278.196 287.66C275.821 286.284 273.99 284.34 272.704 281.83C271.419 279.305 270.776 276.319 270.776 272.872C270.776 269.511 271.419 266.56 272.704 264.021C273.99 261.482 275.8 259.504 278.133 258.085C280.481 256.667 283.234 255.957 286.392 255.957C288.516 255.957 290.494 256.305 292.324 257C294.169 257.681 295.776 258.709 297.146 260.085C298.529 261.461 299.605 263.191 300.374 265.277C301.142 267.348 301.527 269.773 301.527 272.553V275.043H274.339V269.426H293.121C293.121 268.121 292.841 266.965 292.283 265.957C291.724 264.95 290.948 264.163 289.956 263.596C288.978 263.014 287.839 262.723 286.539 262.723C285.184 262.723 283.982 263.043 282.934 263.681C281.9 264.305 281.089 265.149 280.502 266.213C279.915 267.262 279.615 268.433 279.601 269.723V275.064C279.601 276.681 279.894 278.078 280.481 279.255C281.082 280.433 281.928 281.34 283.018 281.979C284.108 282.617 285.4 282.936 286.895 282.936C287.888 282.936 288.796 282.794 289.62 282.511C290.445 282.227 291.151 281.801 291.738 281.234C292.324 280.667 292.772 279.972 293.079 279.149L301.338 279.702C300.919 281.716 300.059 283.475 298.76 284.979C297.474 286.468 295.811 287.631 293.771 288.468C291.744 289.291 289.404 289.702 286.749 289.702Z" fill="white"/>
<path d="M325.66 256.383V263.191H306.271V256.383H325.66ZM310.672 248.553H319.602V279.021C319.602 279.858 319.728 280.511 319.979 280.979C320.231 281.433 320.58 281.752 321.027 281.936C321.489 282.121 322.02 282.213 322.621 282.213C323.04 282.213 323.459 282.177 323.878 282.106C324.297 282.021 324.619 281.957 324.842 281.915L326.247 288.66C325.8 288.801 325.171 288.965 324.36 289.149C323.55 289.348 322.565 289.468 321.405 289.511C319.253 289.596 317.366 289.305 315.745 288.638C314.138 287.972 312.887 286.936 311.993 285.532C311.099 284.128 310.658 282.355 310.672 280.213V248.553Z" fill="white"/>
<path d="M349.783 256.383V263.191H330.394V256.383H349.783ZM334.795 248.553H343.725V279.021C343.725 279.858 343.851 280.511 344.102 280.979C344.354 281.433 344.703 281.752 345.15 281.936C345.612 282.121 346.143 282.213 346.743 282.213C347.163 282.213 347.582 282.177 348.001 282.106C348.42 282.021 348.742 281.957 348.965 281.915L350.37 288.66C349.923 288.801 349.294 288.965 348.483 289.149C347.673 289.348 346.688 289.468 345.528 289.511C343.376 289.596 341.489 289.305 339.868 288.638C338.261 287.972 337.01 286.936 336.116 285.532C335.222 284.128 334.781 282.355 334.795 280.213V248.553Z" fill="white"/>
<path d="M356.78 289.064V256.383H365.71V289.064H356.78ZM361.266 252.17C359.938 252.17 358.8 251.723 357.849 250.83C356.913 249.922 356.445 248.837 356.445 247.574C356.445 246.326 356.913 245.255 357.849 244.362C358.8 243.454 359.938 243 361.266 243C362.594 243 363.726 243.454 364.662 244.362C365.612 245.255 366.087 246.326 366.087 247.574C366.087 248.837 365.612 249.922 364.662 250.83C363.726 251.723 362.594 252.17 361.266 252.17Z" fill="white"/>
<path d="M382.973 270.17V289.064H374.044V256.383H382.554V262.149H382.931C383.644 260.248 384.839 258.745 386.516 257.638C388.193 256.518 390.226 255.957 392.616 255.957C394.851 255.957 396.801 256.454 398.464 257.447C400.127 258.44 401.419 259.858 402.342 261.702C403.264 263.532 403.725 265.716 403.725 268.255V289.064H394.796V269.872C394.809 267.872 394.306 266.312 393.286 265.191C392.266 264.057 390.862 263.489 389.073 263.489C387.871 263.489 386.809 263.752 385.887 264.277C384.979 264.801 384.266 265.567 383.749 266.574C383.246 267.567 382.987 268.766 382.973 270.17Z" fill="white"/>
<path d="M426.449 302C423.556 302 421.076 301.596 419.008 300.787C416.953 299.993 415.318 298.908 414.103 297.532C412.887 296.156 412.097 294.61 411.734 292.894L419.993 291.766C420.244 292.418 420.643 293.028 421.188 293.596C421.733 294.163 422.452 294.617 423.347 294.957C424.255 295.312 425.359 295.489 426.659 295.489C428.601 295.489 430.201 295.007 431.459 294.043C432.73 293.092 433.366 291.496 433.366 289.255V283.277H432.989C432.598 284.184 432.011 285.043 431.228 285.851C430.446 286.66 429.439 287.319 428.21 287.83C426.98 288.34 425.513 288.596 423.808 288.596C421.39 288.596 419.189 288.028 417.205 286.894C415.234 285.745 413.662 283.993 412.489 281.638C411.329 279.27 410.749 276.277 410.749 272.66C410.749 268.957 411.343 265.865 412.53 263.383C413.718 260.901 415.297 259.043 417.268 257.809C419.252 256.574 421.425 255.957 423.787 255.957C425.589 255.957 427.099 256.27 428.314 256.894C429.53 257.504 430.508 258.27 431.249 259.191C432.004 260.099 432.584 260.993 432.989 261.872H433.324V256.383H442.191V289.383C442.191 292.163 441.52 294.489 440.179 296.362C438.837 298.234 436.979 299.638 434.603 300.574C432.241 301.525 429.523 302 426.449 302ZM426.638 281.787C428.077 281.787 429.293 281.426 430.285 280.702C431.291 279.965 432.06 278.915 432.591 277.553C433.136 276.177 433.408 274.532 433.408 272.617C433.408 270.702 433.143 269.043 432.612 267.638C432.081 266.22 431.312 265.121 430.306 264.34C429.3 263.56 428.077 263.17 426.638 263.17C425.17 263.17 423.934 263.574 422.927 264.383C421.921 265.177 421.16 266.284 420.643 267.702C420.125 269.121 419.867 270.759 419.867 272.617C419.867 274.504 420.125 276.135 420.643 277.511C421.174 278.872 421.935 279.929 422.927 280.681C423.934 281.418 425.17 281.787 426.638 281.787Z" fill="white"/>
<path d="M477.266 265.702L469.091 266.213C468.952 265.504 468.651 264.865 468.19 264.298C467.729 263.716 467.121 263.255 466.366 262.915C465.626 262.56 464.738 262.383 463.704 262.383C462.321 262.383 461.154 262.681 460.204 263.277C459.253 263.858 458.778 264.638 458.778 265.617C458.778 266.397 459.086 267.057 459.701 267.596C460.315 268.135 461.371 268.567 462.866 268.894L468.693 270.085C471.823 270.738 474.157 271.787 475.694 273.234C477.231 274.681 478 276.582 478 278.936C478 281.078 477.378 282.957 476.134 284.574C474.905 286.191 473.214 287.454 471.062 288.362C468.924 289.255 466.457 289.702 463.662 289.702C459.4 289.702 456.004 288.801 453.475 287C450.96 285.184 449.485 282.716 449.052 279.596L457.835 279.128C458.101 280.447 458.743 281.454 459.763 282.149C460.784 282.83 462.09 283.17 463.683 283.17C465.248 283.17 466.506 282.865 467.456 282.255C468.421 281.631 468.91 280.83 468.924 279.851C468.91 279.028 468.567 278.355 467.897 277.83C467.226 277.291 466.192 276.879 464.794 276.596L459.218 275.468C456.074 274.83 453.734 273.723 452.196 272.149C450.673 270.574 449.912 268.567 449.912 266.128C449.912 264.028 450.471 262.22 451.588 260.702C452.72 259.184 454.306 258.014 456.347 257.191C458.401 256.369 460.805 255.957 463.557 255.957C467.624 255.957 470.824 256.83 473.158 258.574C475.506 260.319 476.875 262.695 477.266 265.702Z" fill="white"/>
<path fill-rule="evenodd" clip-rule="evenodd" d="M147.121 239.682C147.121 236.084 150.004 233.167 153.561 233.167H166.44C169.997 233.167 172.88 236.084 172.88 239.682V242.729C173.977 243.281 175.034 243.9 176.046 244.582L178.658 243.056C181.738 241.257 185.677 242.325 187.455 245.441L193.895 256.726C195.673 259.842 194.618 263.826 191.538 265.625L188.924 267.152C188.961 267.763 188.98 268.379 188.98 269C188.98 269.621 188.961 270.237 188.924 270.848L191.537 272.375C194.617 274.174 195.673 278.158 193.894 281.274L187.455 292.559C185.676 295.675 181.738 296.743 178.657 294.944L176.046 293.418C175.034 294.1 173.977 294.719 172.88 295.271V298.318C172.88 301.916 169.997 304.833 166.44 304.833H153.561C150.004 304.833 147.121 301.916 147.121 298.318V295.271C146.024 294.719 144.967 294.1 143.955 293.418L141.344 294.944C138.263 296.743 134.325 295.675 132.547 292.559L126.107 281.274C124.328 278.158 125.384 274.174 128.464 272.374L131.078 270.848C131.04 270.237 131.021 269.621 131.021 269C131.021 268.379 131.04 267.763 131.077 267.152L128.463 265.625C125.383 263.826 124.328 259.842 126.106 256.726L132.546 245.441C134.324 242.325 138.263 241.257 141.343 243.056L143.955 244.582C144.967 243.9 146.024 243.281 147.121 242.729V239.682ZM160.001 285.288C168.893 285.288 176.101 277.996 176.101 269C176.101 260.004 168.893 252.712 160.001 252.712C151.11 252.712 143.902 260.004 143.902 269C143.902 277.996 151.11 285.288 160.001 285.288Z" fill="white"/>
<path d="M169.661 269C169.661 274.397 165.336 278.773 160.001 278.773C154.666 278.773 150.342 274.397 150.342 269C150.342 263.603 154.666 259.227 160.001 259.227C165.336 259.227 169.661 263.603 169.661 269Z" fill="white"/>
<path fill-rule="evenodd" clip-rule="evenodd" d="M455.139 340.332C459.031 334.202 468.866 340.332 471.393 345.922C474.701 353.242 473.919 358.35 473.919 367.476C473.919 374.788 473.077 386.996 471.116 394.171C469.154 401.346 462.549 426.24 461.724 428.875C460.899 431.51 459.959 432.767 458.388 434.021C456.817 435.275 454.844 436 452.8 436C450.757 436 404.721 436 404.721 436C401.708 435.993 400.348 434.438 398.615 431.829L356.116 375.936C351.485 368.861 349.559 360.2 356.842 354.712C364.747 348.755 370.862 351.395 377.67 358.111L392.776 372.745C392.776 372.745 392.911 303.536 392.776 298.177C392.321 280.241 417.66 278.332 418 298.177C418.092 303.536 418 350.593 418 350.593L418.014 329.462C418.014 322.527 427.691 324.196 431.495 326.882C433.786 328.5 436.583 332.298 436.583 336.019C436.583 329.084 446.261 330.752 450.064 333.438C452.355 335.056 454.758 337.382 455.139 340.332Z" fill="white"/>
<path fill-rule="evenodd" clip-rule="evenodd" d="M417.163 285.553C420.089 288.987 421.638 293.568 421.717 298.137C421.75 300.044 421.751 310.907 421.752 318.224C421.752 319.133 421.752 319.956 421.752 320.662C425.649 319.953 430.427 321.44 433.559 323.64C435.009 324.659 436.436 326.135 437.595 327.822C438.872 327.345 440.185 327.15 441.367 327.104C445.232 326.952 449.55 328.318 452.221 330.194C453.565 331.138 455.201 332.465 456.539 334.187C457.055 334.031 457.584 333.918 458.12 333.848C460.697 333.508 463.213 334.154 465.295 335.084C469.374 336.907 473.292 340.503 475.024 344.314C478.161 351.218 478.071 356.615 477.961 363.189L477.959 363.298C477.937 364.629 477.914 366.007 477.914 367.472C477.914 374.887 477.068 387.505 474.957 395.186C474.257 397.732 472.949 402.587 471.518 407.896L471.466 408.091C468.94 417.461 466.031 428.258 465.478 430.013C463.796 435.357 459.349 440 452.495 440L443.811 440C430.159 440 406.172 440 404.172 440C402.731 440 401.577 439.856 400.536 439.481C399.494 439.106 398.72 438.552 398.019 438.017C396.522 436.875 395.443 435.367 394.583 434.085C389.939 428.011 385.196 421.972 380.431 415.906C370.774 403.61 361.025 391.198 351.822 378.137C351.81 378.12 351.798 378.103 351.786 378.085C349.233 374.206 347.204 369.579 347.014 364.883C346.816 359.979 348.657 355.15 353.481 351.534C355.666 349.897 357.562 348.633 359.813 347.963C362.095 347.285 364.526 347.275 367.706 347.702C369.72 347.972 371.832 349.049 373.823 350.365C375.862 351.712 378 353.463 380.091 355.332C382.8 357.753 385.559 360.494 387.994 362.92C387.995 362.468 387.996 362.003 387.996 361.528C388.007 354.772 388.02 345.708 388.028 336.477C388.046 317.962 388.045 300.914 387.979 298.303C387.694 287.144 395.732 280.338 404.384 280.013C409.838 279.808 414.2 282.075 417.163 285.553ZM375.451 362.337L389.202 375.587C390.4 376.741 392.203 377.088 393.771 376.468C395.806 375.662 396.302 373.833 396.417 372.631C396.477 372.009 396.457 371.393 396.431 370.896C396.422 370.721 396.413 370.567 396.405 370.428C396.387 370.126 396.373 369.896 396.374 369.677C396.377 367.72 396.382 364.919 396.387 361.54C396.398 354.783 396.411 345.717 396.419 336.484C396.436 318.07 396.437 300.851 396.367 298.105C396.195 291.337 400.66 288.224 404.712 288.072C407.496 287.967 409.539 289.124 410.972 290.974C412.454 292.887 413.281 295.563 413.327 298.271C413.372 300.903 413.373 312.447 413.361 325.406C413.357 329.335 413.351 333.27 413.344 337.206C413.337 341.658 413.329 346.111 413.326 350.556L413.326 350.59V350.593V350.594C413.325 352.823 415.203 354.627 417.517 354.629C418.905 354.631 420.135 354.099 420.909 352.999C421.583 352.042 421.726 350.907 421.721 349.995V348.486C421.723 347.135 421.727 345.198 421.73 342.857C421.732 341.593 421.732 339.813 421.732 337.947C421.731 334.167 421.73 330.031 421.748 329.096C421.757 328.609 422.706 328.622 423.047 328.608C425.001 328.532 427.456 329.342 428.608 330.152C429.234 330.591 430.146 331.508 430.889 332.721L430.951 332.823C431.38 333.522 431.588 333.86 431.737 334.268C431.875 334.647 431.988 335.174 431.988 336.184C431.988 336.739 431.989 338.01 431.99 339.647C431.993 344.886 431.999 353.865 431.988 355.049C431.977 356.237 432.349 357.394 433.339 358.198C434.256 358.945 435.362 359.1 436.18 359.101C437.191 359.102 438.256 358.796 439.09 358.049C439.946 357.284 440.367 356.225 440.379 355.09C440.386 354.415 440.386 349.988 440.386 345.583V345.511C440.386 341.059 440.386 336.651 440.393 336.051C440.398 335.646 440.462 335.462 440.484 335.408C440.521 335.387 440.601 335.346 440.742 335.303C440.95 335.24 441.265 335.179 441.709 335.162C443.662 335.086 446.118 335.896 447.27 336.705C448.254 337.396 449.165 338.191 449.808 338.957C450.502 339.784 450.65 340.3 450.65 340.478C450.65 341.352 450.65 345.663 450.65 349.877C450.65 354.091 450.65 358.208 450.65 358.692C450.649 359.776 451.158 360.76 451.842 361.451C452.541 362.157 453.588 362.725 454.845 362.725C457.112 362.725 459.04 361.037 459.041 358.693C459.041 358.096 459.041 353.853 459.041 349.665C459.041 346.505 459.041 343.376 459.041 341.871C459.115 341.858 459.189 341.847 459.261 341.838C459.717 341.778 460.565 341.865 461.758 342.398C464.233 343.504 466.527 345.765 467.335 347.542C469.7 352.747 469.664 356.429 469.566 362.976L469.566 362.981C469.545 364.348 469.523 365.836 469.523 367.472C469.523 374.676 468.676 386.464 466.845 393.126C466.115 395.782 464.766 400.786 463.311 406.184L463.309 406.194C460.776 415.594 457.947 426.088 457.447 427.678C457.017 429.042 456.447 430.104 455.697 430.812C455.006 431.464 454.042 431.935 452.495 431.935C451.615 431.935 449.056 431.938 445.544 431.942C432.385 431.957 405.855 431.986 404.249 431.936C403.831 431.923 403.679 431.882 403.634 431.866L403.632 431.866C403.621 431.862 403.585 431.852 403.476 431.753C403.317 431.611 403.117 431.388 402.742 430.943C402.686 430.877 402.628 430.808 402.567 430.735C402.241 430.347 401.832 429.86 401.323 429.291C400.232 428.072 390.246 415.033 380.118 401.74C370.039 388.51 359.961 375.217 358.772 373.62C356.608 370.712 355.513 367.398 355.399 364.571C355.295 362.009 356.145 359.765 358.641 357.894C361.903 355.449 364.158 355.182 365.992 355.591C368.153 356.072 370.812 357.866 374.008 360.946C374.012 360.95 374.017 360.955 374.022 360.959L374.024 360.962L375.444 362.33L375.447 362.333L375.448 362.334L375.451 362.337Z" fill="#05060F"/>
</svg>
